<svg width="232" height="402" viewBox="0 0 232 402" fill="none" xmlns="http://www.w3.org/2000/svg">
<path d="M7.62436 121.712C10.3452 116.542 16.4402 115.705 26.6194 121.019C27.7153 121.596 28.6965 122.446 29.7924 123.023L41.7289 100.31C39.9556 99.0048 37.448 97.6922 34.1602 95.9737C8.75532 82.7135 -9.89405 88.7499 -18.8117 105.728C-25.4648 118.379 -23.8422 128.029 -20.6979 137.37C-18.6749 144.285 -17.0425 149.155 -19.4717 153.781C-22.1925 158.951 -28.2627 159.801 -38.4667 154.474L-42.0456 152.609L-53.8364 175.055C-51.803 176.5 -49.2954 177.813 -46.2676 179.392C-20.6028 192.792 -2.11813 187.052 6.96424 169.777C13.6174 157.127 11.7347 147.337 8.82569 138.123C6.82745 131.22 5.17027 126.337 7.59947 121.712L7.61795 121.731L7.62436 121.712Z" fill="#82B536"/>
<path d="M133.896 -29.5773C125.648 -25.9296 116.357 -23.7438 106.132 -23.1822C95.9152 -22.6171 85.6348 -23.7957 76.7206 -26.6933L80.1454 39.937C89.3623 41.075 99.0277 41.3868 109.066 40.8314C119.103 40.2759 128.439 38.9931 137.351 36.9523L133.932 -29.6143L133.917 -29.579L133.896 -29.5773Z" fill="#82B536"/>
<path d="M58.3429 159.698C61.9993 160.608 65.9771 161.002 70.1341 160.925C74.2911 160.849 77.8944 160.326 81.408 159.302C88.9336 157.12 95.0217 152.625 98.0004 145.354C99.3355 142.084 100.071 138.279 99.9891 133.834C99.9076 129.389 99.0222 125.488 97.5498 122.243C94.2973 115.077 88.0668 110.826 80.4841 108.921C76.9443 108.026 73.1097 107.64 69.1583 107.712C65.0013 107.788 61.0406 108.327 57.4202 109.379C49.8235 111.581 43.8066 116.057 40.845 123.292C39.4927 126.597 38.7676 130.456 38.8502 134.964C38.9329 139.472 39.7969 143.185 41.242 146.404C44.4488 153.517 50.6438 157.778 58.3429 159.698Z" fill="#BF63F3"/>
<path d="M34.6843 163.004L29.7026 171.955C29.7026 171.955 39.0557 180.289 46.9033 179.136C54.7538 177.985 56.7703 173.676 60.2029 167.509L48.0801 160.762C45.9687 164.555 43.9662 170.766 34.6843 163.004Z" fill="#1868DB"/>
<path d="M68.9933 128.948C69.0055 128.994 69.0174 129.041 69.0288 129.086C68.9539 128.959 68.8733 128.827 68.7906 128.693C68.6964 128.541 68.5993 128.387 68.504 128.235C68.3381 127.971 68.1776 127.716 68.0474 127.496C67.9558 127.341 67.8818 127.208 67.8325 127.104C67.954 127.191 68.1297 127.337 68.3723 127.557L68.5533 127.387C66.9833 125.426 64.2819 124.514 61.6216 124.659C58.9625 124.804 56.3166 126.005 54.8533 128.308C54.5979 128.623 54.4348 129.164 54.3433 129.752C54.2503 130.351 54.2279 131.022 54.2703 131.611C54.2915 131.905 54.3291 132.181 54.3831 132.418C54.4366 132.652 54.508 132.857 54.6013 133.004C54.6932 133.149 54.8272 133.266 55.0068 133.25C55.1738 133.236 55.327 133.108 55.4697 132.915L55.5102 132.86L55.4857 132.796C55.3373 132.411 55.3768 131.982 55.4503 131.546C55.4635 131.467 55.4781 131.387 55.4926 131.307C55.5173 131.172 55.5418 131.037 55.5597 130.91C55.5885 130.706 55.6033 130.505 55.5754 130.32L55.5673 130.267L55.5229 130.236L55.519 130.234C55.4638 130.196 55.4189 130.165 55.3819 130.135C55.3441 130.104 55.3227 130.08 55.3112 130.061C55.3015 130.044 55.2981 130.03 55.3001 130.012C55.3011 130.003 55.3036 129.991 55.3087 129.976C55.3992 129.984 55.4859 129.961 55.5653 129.916C55.6719 129.856 55.7663 129.757 55.8504 129.644C56.0189 129.416 56.1736 129.091 56.3164 128.768C56.3579 128.674 56.3984 128.58 56.4382 128.488C56.5379 128.257 56.6329 128.037 56.7267 127.854C56.792 127.726 56.8534 127.624 56.9109 127.552C56.9331 127.524 56.9525 127.503 56.9692 127.488C56.9785 127.494 56.9881 127.498 56.9975 127.502C57.0551 127.524 57.1202 127.517 57.1711 127.508C57.2801 127.489 57.4274 127.435 57.5907 127.365C57.8687 127.247 58.2236 127.069 58.58 126.892C58.6472 126.858 58.7144 126.825 58.7812 126.792C59.2069 126.58 59.6115 126.385 59.8846 126.292C59.9523 126.269 60.0084 126.253 60.0527 126.245C60.0578 126.244 60.0626 126.243 60.0671 126.243L59.9714 126.444L60.2001 126.412C62.377 126.11 65.0614 126.862 66.67 128.268C67.4721 128.969 67.9976 129.824 68.0719 130.783C68.1462 131.74 67.7726 132.826 66.7262 133.994L66.539 134.203L66.7329 134.202C66.5798 134.954 66.0635 135.658 65.4048 136.35C65.0563 136.716 64.6726 137.074 64.289 137.431L64.2559 137.462C63.8845 137.807 63.5139 138.152 63.1822 138.497C62.5041 139.204 61.9617 139.94 61.918 140.737C61.8736 141.547 62.344 142.369 63.5636 143.244L63.5923 143.264L63.6276 143.267C63.7434 143.275 63.845 143.239 63.9173 143.156C63.9837 143.079 64.0121 142.976 64.023 142.873C64.0447 142.668 64.0028 142.395 63.9417 142.117C63.8883 141.873 63.8172 141.612 63.7513 141.371C63.7409 141.333 63.7307 141.295 63.7207 141.258C63.6478 140.99 63.5879 140.758 63.5672 140.6C63.6398 139.837 64.161 139.514 64.8094 139.171C64.8501 139.15 64.8912 139.128 64.9327 139.106C65.5353 138.791 66.2142 138.436 66.5539 137.655C67.5173 137.016 68.5289 135.622 69.1798 134.043C69.8136 132.505 70.1189 130.758 69.6814 129.324L69.6912 129.324L69.634 129.159C69.4716 128.692 69.2459 128.259 68.9765 127.883L68.7517 127.971C68.763 128.062 68.7995 128.212 68.8432 128.38C68.8647 128.463 68.8885 128.552 68.913 128.644L68.9159 128.655C68.9415 128.751 68.9679 128.85 68.9933 128.948Z" fill="#101214" stroke="#101214" stroke-width="0.2491"/>
<path d="M63.8136 147.734L63.8158 147.741L63.8189 147.748C64.2717 148.76 65.3395 148.973 66.1737 148.717C66.5923 148.588 66.9679 148.338 67.1904 147.995C67.4143 147.649 67.4771 147.217 67.2838 146.747C67.1721 146.242 66.8524 145.909 66.4507 145.731C66.0498 145.554 65.5698 145.532 65.1289 145.639C64.6882 145.745 64.2736 145.984 64.0109 146.341C63.745 146.704 63.6425 147.178 63.8136 147.734Z" fill="#101214" stroke="#101214" stroke-width="0.2491"/>
<path d="M86.1634 130.179C86.1531 130.216 86.1425 130.255 86.1316 130.294C86.1285 130.189 86.1249 130.083 86.1213 129.978C86.1136 129.754 86.1062 129.538 86.1049 129.354C86.1049 129.347 86.1048 129.34 86.1048 129.333C86.1246 129.391 86.146 129.456 86.169 129.529L86.4593 129.462C86.1881 127.644 84.8175 126.08 83.0928 125.198C81.3694 124.317 79.2626 124.101 77.4928 125.016C77.2044 125.126 76.8991 125.415 76.6284 125.749C76.35 126.092 76.0897 126.507 75.9007 126.893C75.8061 127.087 75.7282 127.275 75.6748 127.446C75.6221 127.615 75.5901 127.776 75.5954 127.911C75.6006 128.044 75.6455 128.194 75.793 128.264C75.9269 128.327 76.09 128.294 76.2529 128.223L76.3281 128.191L76.3411 128.11C76.3855 127.833 76.5562 127.59 76.7599 127.345C76.7956 127.303 76.8332 127.259 76.8711 127.214C76.9363 127.138 77.0022 127.061 77.0599 126.987C77.153 126.869 77.2397 126.744 77.2925 126.61L77.3163 126.55L77.2888 126.491L77.2881 126.49C77.2668 126.445 77.2509 126.411 77.2396 126.381C77.2373 126.375 77.2354 126.37 77.2338 126.365C77.2792 126.383 77.3276 126.391 77.3767 126.392C77.4771 126.393 77.5808 126.362 77.678 126.321C77.8727 126.237 78.0921 126.086 78.2982 125.937C78.3594 125.892 78.4194 125.848 78.4779 125.805C78.6233 125.697 78.76 125.597 78.8833 125.517C78.9692 125.462 79.0409 125.423 79.0974 125.401C79.1027 125.399 79.1077 125.397 79.1124 125.395C79.1503 125.435 79.2 125.457 79.2335 125.469C79.3156 125.499 79.4331 125.519 79.5605 125.535C79.7788 125.562 80.0669 125.581 80.3537 125.599C80.4077 125.603 80.4616 125.606 80.515 125.61C80.8586 125.632 81.1777 125.657 81.3772 125.697C81.3785 125.698 81.3798 125.698 81.381 125.698L81.263 125.779L81.5194 125.884C82.9728 126.48 84.3617 127.911 84.8491 129.355C85.0917 130.074 85.1067 130.781 84.8136 131.388C84.5212 131.994 83.9093 132.528 82.8428 132.873L82.5226 132.977L82.6953 133.076C82.3371 133.445 81.7948 133.68 81.1646 133.863C80.8162 133.964 80.4485 134.048 80.0794 134.131L80.0469 134.139C79.6903 134.219 79.3325 134.3 78.9984 134.395C78.3181 134.59 77.6923 134.858 77.3628 135.359C77.0246 135.873 77.028 136.581 77.4749 137.577L77.4923 137.616L77.5274 137.64C77.6095 137.696 77.7052 137.716 77.8012 137.683C77.8872 137.653 77.9513 137.588 77.9984 137.524C78.0926 137.395 78.168 137.201 78.2311 137.005C78.2868 136.832 78.3375 136.642 78.384 136.467C78.3913 136.44 78.3985 136.413 78.4056 136.387C78.457 136.195 78.5018 136.036 78.5436 135.934C78.8457 135.517 79.2553 135.502 79.7829 135.524C79.8168 135.525 79.8511 135.527 79.8858 135.528C80.3693 135.55 80.9361 135.576 81.4453 135.21C82.2933 135.154 83.4329 134.646 84.4109 133.898C85.3468 133.182 86.1665 132.223 86.4399 131.179L86.4499 131.185L86.4898 130.98C86.559 130.624 86.5757 130.266 86.5438 129.928L86.2575 129.883C86.2297 129.948 86.197 130.059 86.1634 130.179Z" fill="#101214" stroke="black" stroke-width="0.29892"/>
<path d="M75.9966 140.432L75.9946 140.441L75.9936 140.45C75.9048 141.285 76.524 141.826 77.1569 141.974C77.4752 142.048 77.8152 142.029 78.094 141.888C78.3755 141.745 78.5828 141.483 78.6368 141.103C78.7542 140.73 78.671 140.388 78.4756 140.118C78.2809 139.85 77.9774 139.655 77.6532 139.559C77.3291 139.462 76.9691 139.459 76.6597 139.594C76.3444 139.731 76.0957 140.006 75.9966 140.432Z" fill="#101214" stroke="black" stroke-width="0.29892"/>
<path d="M7.23413 18.0313C8.94786 24.9093 9.3842 32.4005 8.45342 40.3964C7.51905 48.4011 5.24054 56.2204 1.81098 62.7702L53.6481 68.7062C55.7632 61.695 57.2877 54.2384 58.2037 46.3804C59.1196 38.5225 59.3819 31.1092 58.9918 23.9351L7.20239 18.0081L7.22173 18.0365L7.23413 18.0313Z" fill="#BF63F3"/>
<path d="M45.533 -74.0074L25.2517 -57.4877C13.6835 -71.3585 4.13872 -73.4628 -6.00193 -65.2029C-16.1426 -56.943 -16.2764 -46.9572 -5.15429 -32.7222L-25.4356 -16.2024C-47.966 -44.0686 -44.1386 -65.2085 -21.1684 -83.9185C1.80175 -102.629 22.9865 -101.859 45.5045 -73.9881L45.5153 -74.0146L45.533 -74.0074Z" fill="#BF63F3"/>
<path d="M-29.4461 251.505C-22.0938 264.005 -18.2355 272.72 -17.5552 279.23L14.2499 249.724C11.7474 244.841 8.86363 239.73 5.49997 234.333C-1.56219 222.208 -4.85445 213.898 -4.86492 207.587L-37.4312 237.803C-35.11 242.17 -32.4749 246.727 -29.4585 251.511L-29.4461 251.505Z" fill="#BF63F3"/>
<path d="M50.5016 -43.7223C48.8556 -44.7607 47.0126 -45.6938 45.0256 -46.5002C43.0386 -47.3066 41.0012 -47.938 39.0723 -48.3299C27.5611 -50.759 17.9373 -46.003 11.9977 -36.2337C10.9858 -34.5766 10.0722 -32.7563 9.2836 -30.8132C8.49501 -28.8701 7.83838 -26.7705 7.37707 -24.7975C4.87275 -13.6339 8.46025 -3.51631 18.3468 2.73859C20.0121 3.80535 21.8691 4.75447 23.8915 5.5752C25.9138 6.39593 27.8541 6.98792 29.7546 7.39917C41.1863 9.796 50.8136 5.03116 56.8115 -4.70427C57.8857 -6.43886 58.8156 -8.32464 59.6365 -10.3472C60.4573 -12.3698 61.0312 -14.2149 61.4675 -16.1261C64.0159 -27.2717 60.4127 -37.4266 50.4801 -43.6694L50.498 -43.7135L50.5016 -43.7223Z" fill="#FCA700"/>
<path d="M76.6344 63.592L71.3502 82.6697L103.203 112.478L130.396 88.661L119.303 54.3062L76.6256 63.5884L76.6344 63.592Z" fill="#FCA700"/>
<path d="M-29.0218 10.1478C-48.1836 -4.93252 -47.9707 -21.7786 -47.1219 -27.9252L-86.5827 -9.38573C-87.4344 -3.71348 -87.3602 10.9551 -68.5986 25.7291C-50.8118 39.7371 -49.7171 55.2621 -50.3317 62.3268L-10.8673 43.7784C-10.3125 37.317 -11.7145 23.7658 -29.0271 10.1355L-29.0218 10.1478Z" fill="#1868DB"/>
<path d="M7.15464 211.835L18.9015 229.067L38.8695 230.322L52.0312 214.663L48.4623 193.867L30.8597 183.605L12.4813 191.598L7.15752 211.828L7.15464 211.835Z" fill="#FCA700"/>
</svg>
